<svg version="1.1" id="Layer_1" xmlns="http://www.w3.org/2000/svg" xmlns:xlink="http://www.w3.org/1999/xlink" x="0px" y="0px"
	 width="100%" viewBox="0 0 200 200" enable-background="new 0 0 200 200" xml:space="preserve">
<path fill="#664EC5" opacity="1.000000" stroke="none" 
	d="
M201.000000,136.000000 
	C201.000000,157.638245 201.000000,179.276505 201.000000,200.957367 
	C134.449203,200.957367 67.898376,200.957367 1.000000,200.957367 
	C1.000000,178.313629 1.000000,155.625473 1.431559,132.469208 
	C8.200515,132.331009 14.539948,132.963791 20.874844,132.921219 
	C30.861794,132.854111 40.845695,132.333160 50.895378,132.468796 
	C50.959866,143.212280 50.959866,153.491272 50.959866,163.840912 
	C59.631760,163.840912 67.665176,163.840912 76.165619,163.840912 
	C76.165619,158.956131 76.165619,154.480225 76.604355,150.003265 
	C83.811523,150.001328 90.580002,150.012161 97.348404,149.996216 
	C103.893753,149.980789 110.439018,149.923874 116.984360,149.913132 
	C119.934273,149.908310 122.884293,149.971375 125.898384,150.465714 
	C125.962502,155.211426 125.962502,159.495056 125.962502,163.840485 
	C134.629181,163.840485 142.661865,163.840485 151.168945,163.840485 
	C151.168945,153.954437 151.168945,144.479370 151.543472,134.909988 
	C154.044998,134.729492 156.176605,134.508820 158.298187,134.581253 
	C165.997406,134.844147 173.691681,135.250870 181.390854,135.515442 
	C187.925079,135.739960 194.463455,135.843124 201.000000,136.000000 
z"/>
<path fill="#6D55CD" opacity="1.000000" stroke="none" 
	d="
M1.000000,63.000000 
	C1.000000,42.361359 1.000000,21.722715 1.000000,1.042036 
	C67.548218,1.042036 134.096481,1.042036 201.000000,1.042036 
	C201.000000,21.019493 201.000000,41.041088 200.599594,61.622894 
	C198.240067,62.447002 196.270355,62.999538 194.323532,62.928085 
	C181.396103,62.453621 168.474701,61.816746 155.547943,61.321030 
	C154.099045,61.265472 152.628922,61.763538 151.100464,61.540260 
	C151.032272,53.465321 151.032272,45.854984 151.032272,38.172760 
	C117.364983,38.172760 84.346626,38.172760 50.832260,38.172760 
	C50.832260,46.728317 50.832260,54.866592 50.411388,63.003372 
	C41.614777,63.111965 33.238491,63.195637 24.864046,63.368488 
	C23.910994,63.388161 22.978132,64.114189 22.019020,64.160133 
	C18.258459,64.340294 14.479633,64.599457 10.729786,64.403839 
	C7.470981,64.233849 4.242103,63.490162 1.000000,63.000000 
z"/>
<path fill="#6951C9" opacity="1.000000" stroke="none" 
	d="
M151.168640,62.004864 
	C152.628922,61.763538 154.099045,61.265472 155.547943,61.321030 
	C168.474701,61.816746 181.396103,62.453621 194.323532,62.928085 
	C196.270355,62.999538 198.240067,62.447002 200.599594,62.091553 
	C201.000000,86.354225 201.000000,110.708458 201.000000,135.531342 
	C194.463455,135.843124 187.925079,135.739960 181.390854,135.515442 
	C173.691681,135.250870 165.997406,134.844147 158.298187,134.581253 
	C156.176605,134.508820 154.044998,134.729492 151.474976,134.445496 
	C151.031952,127.052109 151.031952,120.028915 151.031952,112.949341 
	C142.100128,112.949341 134.018768,112.949341 125.969757,112.986221 
	C126.002106,113.023109 126.065681,113.097832 126.041763,112.623581 
	C125.923492,104.162895 125.829140,96.176468 125.701614,88.217247 
	C125.668434,88.244453 125.619507,88.314949 126.073929,88.109589 
	C134.597076,87.904236 142.665787,87.904236 151.168640,87.904236 
	C151.168640,78.611336 151.168640,70.308098 151.168640,62.004864 
z"/>
<path fill="#6951C9" opacity="1.000000" stroke="none" 
	d="
M1.000000,63.468658 
	C4.242103,63.490162 7.470981,64.233849 10.729786,64.403839 
	C14.479633,64.599457 18.258459,64.340294 22.019020,64.160133 
	C22.978132,64.114189 23.910994,63.388161 24.864046,63.368488 
	C33.238491,63.195637 41.614777,63.111965 50.474770,63.467964 
	C50.916309,86.624138 50.873600,109.314224 50.830887,132.004318 
	C40.845695,132.333160 30.861794,132.854111 20.874844,132.921219 
	C14.539948,132.963791 8.200515,132.331009 1.431559,132.000549 
	C1.000000,109.312439 1.000000,86.624878 1.000000,63.468658 
z"/>
<path fill="#F9F7FF" opacity="1.000000" stroke="none" 
	d="
M50.895378,132.468796 
	C50.873600,109.314224 50.916309,86.624138 50.895641,63.469456 
	C50.832260,54.866592 50.832260,46.728317 50.832260,38.172760 
	C84.346626,38.172760 117.364983,38.172760 151.032272,38.172760 
	C151.032272,45.854984 151.032272,53.465321 151.100464,61.540260 
	C151.168640,70.308098 151.168640,78.611336 151.168640,87.904236 
	C142.665787,87.904236 134.597076,87.904236 126.216385,87.615349 
	C125.904427,79.233604 125.904427,71.140739 125.904427,63.065308 
	C108.987816,63.065308 92.737816,63.065308 76.242439,63.065308 
	C76.242439,71.298927 76.242439,79.210587 76.242439,87.763763 
	C78.585411,87.763763 80.705276,87.746330 82.824776,87.766586 
	C97.128159,87.903282 111.431458,88.047951 125.734787,88.190041 
	C125.829140,96.176468 125.923492,104.162895 125.584579,112.494217 
	C108.944519,112.839111 92.737717,112.839111 76.165619,112.839111 
	C76.165619,125.549408 76.165619,137.776855 76.165619,150.004318 
	C76.165619,154.480225 76.165619,158.956131 76.165619,163.840912 
	C67.665176,163.840912 59.631760,163.840912 50.959866,163.840912 
	C50.959866,153.491272 50.959866,143.212280 50.895378,132.468796 
z"/>
<path fill="#6951C9" opacity="1.000000" stroke="none" 
	d="
M76.604355,150.003265 
	C76.165619,137.776855 76.165619,125.549408 76.165619,112.839111 
	C92.737717,112.839111 108.944519,112.839111 125.608498,112.968475 
	C126.065681,113.097832 126.002106,113.023109 125.995010,113.457481 
	C125.936691,125.929115 125.885483,137.966385 125.834274,150.003632 
	C122.884293,149.971375 119.934273,149.908310 116.984360,149.913132 
	C110.439018,149.923874 103.893753,149.980789 97.348404,149.996216 
	C90.580002,150.012161 83.811523,150.001328 76.604355,150.003265 
z"/>
<path fill="#F9F7FF" opacity="1.000000" stroke="none" 
	d="
M125.898392,150.465729 
	C125.885483,137.966385 125.936691,125.929115 125.962662,113.420593 
	C134.018768,112.949341 142.100128,112.949341 151.031952,112.949341 
	C151.031952,120.028915 151.031952,127.052109 151.100449,134.539795 
	C151.168945,144.479370 151.168945,153.954437 151.168945,163.840485 
	C142.661865,163.840485 134.629181,163.840485 125.962502,163.840485 
	C125.962502,159.495056 125.962502,155.211426 125.898392,150.465729 
z"/>
<path fill="#6D55CD" opacity="1.000000" stroke="none" 
	d="
M125.701614,88.217247 
	C111.431458,88.047951 97.128159,87.903282 82.824776,87.766586 
	C80.705276,87.746330 78.585411,87.763763 76.242439,87.763763 
	C76.242439,79.210587 76.242439,71.298927 76.242439,63.065308 
	C92.737816,63.065308 108.987816,63.065308 125.904427,63.065308 
	C125.904427,71.140739 125.904427,79.233604 125.761963,87.820709 
	C125.619507,88.314949 125.668434,88.244453 125.701614,88.217247 
z"/>
</svg>