<svg xmlns="http://www.w3.org/2000/svg" width="447" height="447" viewBox="0 0 447 447" version="1.1"><path d="M 28.384 1.412 C 17.506 4.052, 7.104 13.154, 2.804 23.798 L 0.500 29.500 0.500 223.500 L 0.500 417.500 3.638 424.123 C 7.717 432.733, 12.489 437.902, 20.232 442.101 L 26.500 445.500 223.500 445.500 L 420.500 445.500 425.786 442.715 C 428.693 441.183, 432.847 438.326, 435.016 436.367 C 439.685 432.149, 446 420.108, 446 415.425 C 446 413.606, 446.450 411.840, 447 411.500 C 447.661 411.092, 448 346.970, 448 222.382 C 448 96.970, 447.665 34.089, 447 34.500 C 446.418 34.860, 446 33.856, 446 32.097 C 446 23.526, 437.545 10.748, 428.282 5.319 C 418.867 -0.198, 427.663 0.026, 223 0.101 C 75.686 0.155, 32.361 0.447, 28.384 1.412 M 26.500 13.353 C 20.479 16.163, 14.883 22.106, 12.617 28.096 C 11.081 32.159, 10.973 47.405, 11.226 225 L 11.500 417.500 14.249 422.176 C 17.821 428.253, 23.279 432.693, 29.432 434.529 C 36.870 436.748, 410.130 436.748, 417.568 434.529 C 423.721 432.693, 429.179 428.253, 432.751 422.176 L 435.500 417.500 435.774 225 C 436.027 47.405, 435.919 32.159, 434.383 28.096 C 432.117 22.106, 426.521 16.163, 420.500 13.353 L 415.500 11.020 223.500 11.020 L 31.500 11.020 26.500 13.353 M 0.490 223.500 C 0.490 327.450, 0.607 369.827, 0.750 317.671 C 0.893 265.514, 0.893 180.464, 0.750 128.671 C 0.607 76.877, 0.490 119.550, 0.490 223.500 M 222 41.640 C 198.735 46.100, 180.071 55.353, 164.432 70.181 C 154 80.070, 147.874 88.397, 141.392 101.500 C 134.831 114.760, 131.282 128.050, 130.161 143.551 C 129.450 153.382, 128.922 155.631, 125.762 162.286 C 118.446 177.690, 105.350 194.950, 84.133 217.148 C 78.010 223.555, 73 229.076, 73 229.417 C 73 230.638, 78.623 228.678, 86 224.887 C 103.820 215.730, 121.397 200.464, 173.993 148.464 C 196.822 125.894, 217.750 105.813, 220.500 103.839 C 232.272 95.391, 240.772 93.458, 253.259 96.389 C 266.777 99.562, 273.085 104.448, 280.868 117.774 C 284.059 123.237, 286.429 125.844, 291.488 129.454 C 295.069 132.010, 297.998 134.641, 297.996 135.301 C 297.994 135.960, 295.543 138.391, 292.550 140.703 C 286.204 145.604, 286.334 145.133, 285.575 166 C 284.869 185.410, 281.227 199.548, 276.461 201.377 C 271.495 203.282, 270.152 202.294, 247.176 179.835 C 222.773 155.981, 219.592 153.714, 210.523 153.714 C 201.876 153.714, 193.102 159.999, 188.122 169.761 C 186.894 172.168, 184.064 175.002, 180.578 177.317 C 177.510 179.354, 175 181.412, 175 181.892 C 175 182.371, 176.575 183.964, 178.501 185.433 C 183.593 189.317, 184.671 192.273, 185.272 204 C 187.676 250.936, 213.062 269.350, 257.582 256.448 C 275.557 251.239, 293.873 242.456, 304.659 233.874 C 349.992 197.801, 359.442 133.082, 326.248 86.020 C 315.615 70.943, 297.192 56.164, 280.598 49.399 C 265.372 43.192, 258.235 41.777, 240.500 41.453 C 231.700 41.292, 223.375 41.376, 222 41.640 M 239.381 126.910 C 233.405 130.553, 232.809 138.979, 238.206 143.520 C 247.232 151.115, 260.270 140.174, 254.047 130.225 C 250.713 124.894, 244.857 123.570, 239.381 126.910 M 207.223 176.557 C 204.098 178.746, 204.098 185.254, 207.223 187.443 C 214.507 192.545, 222.345 182.563, 215.365 177.073 C 212.217 174.596, 210.204 174.468, 207.223 176.557 M 136.261 328 C 136.500 396.462, 136.501 396.502, 138.702 400.616 C 145.701 413.698, 158.745 419.542, 172.211 415.627 C 179.443 413.525, 186.876 406.945, 190.114 399.779 C 192.493 394.515, 192.501 394.375, 192.808 351.241 C 193.057 316.266, 192.866 307.908, 191.808 307.599 C 166.648 300.229, 151.267 288.095, 139.785 266.558 L 136.022 259.500 136.261 328 M 273.214 273.487 C 266.086 285.266, 253.709 296.083, 240.513 302.067 C 235.728 304.236, 234.093 305.436, 234.749 306.298 C 235.252 306.959, 248.859 327.975, 264.987 353 C 281.115 378.025, 295.928 400.241, 297.905 402.370 C 303.300 408.177, 310.021 410.983, 318.500 410.968 C 332.730 410.943, 343.328 402.088, 346.003 387.987 C 348.043 377.228, 347.327 375.832, 310.752 319.296 C 292.500 291.083, 277.327 268.013, 277.033 268.028 C 276.740 268.044, 275.021 270.501, 273.214 273.487" stroke="none" fill="#050504" fill-rule="evenodd"/><path d="M 26.500 13.353 C 20.479 16.163, 14.883 22.106, 12.617 28.096 C 11.081 32.159, 10.973 47.405, 11.226 225 L 11.500 417.500 14.249 422.176 C 17.821 428.253, 23.279 432.693, 29.432 434.529 C 36.870 436.748, 410.130 436.748, 417.568 434.529 C 423.721 432.693, 429.179 428.253, 432.751 422.176 L 435.500 417.500 435.774 225 C 436.027 47.405, 435.919 32.159, 434.383 28.096 C 432.117 22.106, 426.521 16.163, 420.500 13.353 L 415.500 11.020 223.500 11.020 L 31.500 11.020 26.500 13.353 M 222 41.640 C 198.735 46.100, 180.071 55.353, 164.432 70.181 C 154 80.070, 147.874 88.397, 141.392 101.500 C 134.831 114.760, 131.282 128.050, 130.161 143.551 C 129.450 153.382, 128.922 155.631, 125.762 162.286 C 118.446 177.690, 105.350 194.950, 84.133 217.148 C 78.010 223.555, 73 229.076, 73 229.417 C 73 230.638, 78.623 228.678, 86 224.887 C 103.820 215.730, 121.397 200.464, 173.993 148.464 C 196.822 125.894, 217.750 105.813, 220.500 103.839 C 232.272 95.391, 240.772 93.458, 253.259 96.389 C 266.777 99.562, 273.085 104.448, 280.868 117.774 C 284.059 123.237, 286.429 125.844, 291.488 129.454 C 295.069 132.010, 297.998 134.641, 297.996 135.301 C 297.994 135.960, 295.543 138.391, 292.550 140.703 C 286.204 145.604, 286.334 145.133, 285.575 166 C 284.869 185.410, 281.227 199.548, 276.461 201.377 C 271.495 203.282, 270.152 202.294, 247.176 179.835 C 222.773 155.981, 219.592 153.714, 210.523 153.714 C 201.876 153.714, 193.102 159.999, 188.122 169.761 C 186.894 172.168, 184.064 175.002, 180.578 177.317 C 177.510 179.354, 175 181.412, 175 181.892 C 175 182.371, 176.575 183.964, 178.501 185.433 C 183.593 189.317, 184.671 192.273, 185.272 204 C 187.676 250.936, 213.062 269.350, 257.582 256.448 C 275.557 251.239, 293.873 242.456, 304.659 233.874 C 349.992 197.801, 359.442 133.082, 326.248 86.020 C 315.615 70.943, 297.192 56.164, 280.598 49.399 C 265.372 43.192, 258.235 41.777, 240.500 41.453 C 231.700 41.292, 223.375 41.376, 222 41.640 M 239.381 126.910 C 233.405 130.553, 232.809 138.979, 238.206 143.520 C 247.232 151.115, 260.270 140.174, 254.047 130.225 C 250.713 124.894, 244.857 123.570, 239.381 126.910 M 207.223 176.557 C 204.098 178.746, 204.098 185.254, 207.223 187.443 C 214.507 192.545, 222.345 182.563, 215.365 177.073 C 212.217 174.596, 210.204 174.468, 207.223 176.557 M 136.261 328 C 136.500 396.462, 136.501 396.502, 138.702 400.616 C 145.701 413.698, 158.745 419.542, 172.211 415.627 C 179.443 413.525, 186.876 406.945, 190.114 399.779 C 192.493 394.515, 192.501 394.375, 192.808 351.241 C 193.057 316.266, 192.866 307.908, 191.808 307.599 C 166.648 300.229, 151.267 288.095, 139.785 266.558 L 136.022 259.500 136.261 328 M 273.214 273.487 C 266.086 285.266, 253.709 296.083, 240.513 302.067 C 235.728 304.236, 234.093 305.436, 234.749 306.298 C 235.252 306.959, 248.859 327.975, 264.987 353 C 281.115 378.025, 295.928 400.241, 297.905 402.370 C 303.300 408.177, 310.021 410.983, 318.500 410.968 C 332.730 410.943, 343.328 402.088, 346.003 387.987 C 348.043 377.228, 347.327 375.832, 310.752 319.296 C 292.500 291.083, 277.327 268.013, 277.033 268.028 C 276.740 268.044, 275.021 270.501, 273.214 273.487" stroke="none" fill="#f3c30c" fill-rule="evenodd"/></svg>